<svg width="512" height="512" viewBox="0 0 512 512" fill="none" xmlns="http://www.w3.org/2000/svg">
<rect width="512" height="512" rx="100" fill="black"/>
<path d="M317.425 46H193.575C186.138 46 180.109 52.0291 180.109 59.4662V236.534C180.109 243.971 186.138 250 193.575 250H317.425C324.862 250 330.891 243.971 330.891 236.534V59.4662C330.891 52.0291 324.862 46 317.425 46ZM201.486 198.384V179.227C201.486 177.697 202.727 176.456 204.257 176.456H223.413C224.944 176.456 226.184 177.697 226.184 179.227V198.384C226.184 199.914 224.944 201.154 223.413 201.154H204.257C202.727 201.154 201.486 199.914 201.486 198.384ZM201.486 159.801V140.644C201.486 139.114 202.727 137.874 204.257 137.874H223.413C224.944 137.874 226.184 139.114 226.184 140.644V159.801C226.184 161.331 224.944 162.572 223.413 162.572H204.257C202.727 162.572 201.486 161.331 201.486 159.801ZM290.486 232.704H220.514C215.615 232.704 211.644 228.733 211.644 223.835C211.644 218.936 215.615 214.965 220.514 214.965H290.486C295.385 214.965 299.356 218.936 299.356 223.835C299.356 228.733 295.385 232.704 290.486 232.704ZM245.922 176.456H265.078C266.609 176.456 267.849 177.696 267.849 179.227V198.383C267.849 199.914 266.609 201.154 265.078 201.154H245.922C244.391 201.154 243.151 199.914 243.151 198.383V179.227C243.151 177.697 244.391 176.456 245.922 176.456ZM243.151 159.801V140.644C243.151 139.114 244.391 137.874 245.922 137.874H265.078C266.609 137.874 267.849 139.114 267.849 140.644V159.801C267.849 161.331 266.609 162.572 265.078 162.572H245.922C244.391 162.572 243.151 161.331 243.151 159.801ZM306.743 201.154H287.587C286.056 201.154 284.816 199.914 284.816 198.384V179.227C284.816 177.697 286.056 176.456 287.587 176.456H306.743C308.273 176.456 309.514 177.697 309.514 179.227V198.384C309.514 199.914 308.273 201.154 306.743 201.154ZM306.743 162.572H287.587C286.056 162.572 284.816 161.331 284.816 159.801V140.644C284.816 139.114 286.056 137.874 287.587 137.874H306.743C308.273 137.874 309.514 139.114 309.514 140.644V159.801C309.514 161.331 308.273 162.572 306.743 162.572ZM310.491 112.361C310.491 117.593 306.249 121.835 301.017 121.835H209.983C204.751 121.835 200.509 117.593 200.509 112.361V73.6566C200.509 68.4245 204.751 64.1826 209.983 64.1826H301.017C306.249 64.1826 310.491 68.4245 310.491 73.6566V112.361Z" fill="white"/>
<path d="M255.5 286V360M255.5 360L225 329.167M255.5 360L286 329.167" stroke="white" stroke-width="12" stroke-linecap="round" stroke-linejoin="round"/>
<path d="M324.76 466.653H310.8L330.202 396H344.184L324.76 466.653Z" fill="white"/>
<path d="M317.502 398.225C316.549 396.867 315.059 396.188 313.032 396.188H236.188L232.399 410.042H302.273L298.195 424.829H228.327L216.735 467H230.717L238.483 438.706H301.323C303.343 438.692 305.297 437.981 306.86 436.693C308.515 435.451 309.714 433.691 310.27 431.689L318.036 403.395C318.648 401.255 318.452 399.554 317.502 398.225Z" fill="white"/>
<path d="M208.571 462.222C208.194 463.582 207.387 464.781 206.272 465.638C205.157 466.494 203.796 466.961 202.393 466.968H130.338C129.496 467.031 128.652 466.879 127.884 466.527C127.116 466.174 126.449 465.633 125.943 464.953C125.456 464.227 125.147 463.395 125.041 462.526C124.935 461.657 125.035 460.774 125.334 459.952L142.908 396.216H156.893L141.191 453.202H197.115L212.817 396.216H226.799L208.571 462.222Z" fill="white"/>
<path d="M368.325 396.127L386 431.533L348.831 466.94L368.325 396.127Z" fill="#575756"/>
<path d="M355.906 396.127L373.581 431.533L336.383 466.94L355.906 396.127Z" fill="white"/>
</svg>
